<svg xmlns="http://www.w3.org/2000/svg" version="1.1" viewBox="0.00 0.00 1000.00 1000.00" width="1000.00" height="1000.00">
<g stroke-width="2.00" fill="none" stroke-linecap="butt">
<path stroke="#89c8ff" d="&#10;  M 501.18 171.30&#10;  Q 502.75 171.47 504.62 172.98&#10;  Q 513.81 180.40 521.84 190.35&#10;  Q 525.16 194.46 527.89 197.24&#10;  Q 531.59 201.00 534.46 203.96&#10;  C 536.56 206.14 538.43 207.32 541.28 207.93&#10;  Q 558.71 211.69 575.59 218.11&#10;  Q 583.39 221.08 593.83 226.32&#10;  Q 624.26 241.60 627.23 243.10&#10;  C 635.37 247.20 641.96 252.23 648.87 258.32&#10;  Q 653.05 262.01 657.93 265.83&#10;  Q 670.64 275.78 681.92 288.55&#10;  Q 682.26 288.94 682.90 289.02&#10;  A 0.58 0.58 0.0 0 0 683.49 288.19&#10;  Q 682.87 286.90 676.82 273.58&#10;  Q 673.23 265.66 667.54 255.14&#10;  Q 663.79 248.22 657.15 238.18&#10;  Q 651.10 229.04 646.45 221.05&#10;  Q 640.59 210.99 635.72 204.14&#10;  Q 624.59 188.48 613.53 176.35&#10;  Q 609.39 171.81 604.65 165.91&#10;  Q 599.62 159.65 595.47 154.87&#10;  Q 586.01 143.97 584.35 141.66&#10;  Q 576.10 130.24 567.89 122.61&#10;  Q 557.65 113.11 549.77 104.61&#10;  Q 540.36 94.47 539.49 93.60&#10;  Q 523.65 77.79 511.00 63.92&#10;  Q 504.20 56.45 499.98 53.60&#10;  A 2.20 2.20 0.0 0 0 497.44 53.66&#10;  C 493.45 56.66 488.48 62.09 485.89 64.53&#10;  Q 470.87 78.67 464.86 84.62&#10;  Q 462.05 87.40 456.12 94.11&#10;  Q 447.94 103.37 439.21 111.11&#10;  Q 427.43 121.57 424.36 124.49&#10;  Q 413.91 134.43 408.94 139.30&#10;  Q 404.36 143.80 395.13 153.76&#10;  Q 387.17 162.35 380.72 168.55&#10;  Q 376.84 172.28 367.54 180.19&#10;  Q 360.05 186.55 354.46 191.95&#10;  Q 339.37 206.53 323.98 223.48&#10;  Q 320.44 227.38 303.47 243.08&#10;  Q 295.79 250.19 289.05 256.95&#10;  Q 250.79 295.35 247.61 298.51&#10;  Q 244.22 301.88 240.15 305.21&#10;  C 231.08 312.67 222.96 321.23 214.68 329.55&#10;  C 209.66 334.59 205.85 339.06 201.47 343.89&#10;  Q 198.07 347.65 191.12 354.21&#10;  Q 184.06 360.88 172.55 371.16&#10;  Q 166.63 376.45 158.26 385.15&#10;  Q 155.45 388.07 139.34 405.08&#10;  Q 129.15 415.84 115.93 427.81&#10;  Q 107.75 435.22 101.41 441.56&#10;  Q 93.36 449.61 78.28 465.04&#10;  Q 67.18 476.39 58.84 484.59&#10;  Q 53.87 489.48 41.45 500.69&#10;  Q 32.53 508.74 20.94 520.64&#10;  C 18.92 522.72 16.69 524.84 18.77 527.21&#10;  Q 30.95 541.06 40.22 549.41&#10;  Q 52.91 560.85 55.01 562.88&#10;  Q 69.51 576.92 83.01 591.85&#10;  Q 88.92 598.39 92.21 601.79&#10;  Q 99.24 609.06 101.78 611.21&#10;  Q 124.27 630.24 143.78 652.25&#10;  Q 151.51 660.97 155.20 664.79&#10;  Q 164.22 674.12 167.40 676.61&#10;  Q 173.20 681.14 178.38 686.36&#10;  Q 187.05 695.09 196.22 704.26&#10;  Q 201.27 709.31 209.82 718.91&#10;  Q 216.32 726.20 225.74 735.38&#10;  Q 227.54 737.13 233.47 742.13&#10;  Q 237.26 745.33 240.59 748.69&#10;  Q 243.77 751.89 259.55 767.79&#10;  Q 263.20 771.47 265.52 774.15&#10;  Q 267.23 776.11 271.21 780.83&#10;  Q 276.38 786.96 287.08 796.35&#10;  Q 293.30 801.81 302.92 808.52&#10;  Q 316.74 818.15 332.41 828.20&#10;  Q 337.02 831.16 342.42 834.10&#10;  C 352.06 839.36 361.60 844.97 370.85 851.21&#10;  Q 380.08 857.44 386.69 863.37&#10;  Q 411.34 885.47 424.13 915.44&#10;  Q 426.69 921.44 430.07 929.60&#10;  A 1.91 1.90 -19.8 0 0 432.40 930.69&#10;  C 433.46 930.36 434.41 928.94 435.07 928.33&#10;  Q 446.67 917.62 454.02 909.49&#10;  Q 462.48 900.13 466.87 895.89&#10;  Q 471.97 890.95 480.05 882.55&#10;  Q 484.66 877.77 495.02 868.32&#10;  A 2.07 2.07 0.0 0 0 494.87 865.12&#10;  Q 490.95 862.17 487.48 858.88&#10;  C 484.34 855.89 480.18 852.44 477.10 850.31&#10;  Q 453.71 834.15 430.34 825.24&#10;  Q 411.32 817.99 396.23 811.36&#10;  Q 394.93 810.78 384.39 806.10&#10;  Q 377.46 803.02 372.64 800.49&#10;  Q 352.87 790.12 334.61 776.18&#10;  Q 332.04 774.22 328.21 770.66&#10;  C 323.49 766.27 317.64 761.39 313.37 757.26&#10;  Q 304.16 748.34 302.66 746.98&#10;  Q 295.97 740.88 292.26 736.49&#10;  Q 285.04 727.94 279.22 720.44&#10;  Q 274.38 714.21 268.73 704.13&#10;  Q 257.90 684.81 254.58 678.36&#10;  Q 244.98 659.66 239.26 638.76&#10;  Q 237.96 634.03 237.00 628.20&#10;  Q 236.17 623.12 235.43 621.57&#10;  Q 233.96 618.51 231.12 615.84&#10;  Q 226.01 611.05 215.23 599.95&#10;  C 210.50 595.09 205.22 588.57 200.59 583.91&#10;  Q 192.28 575.55 178.96 562.29&#10;  Q 174.13 557.49 167.60 551.90&#10;  Q 163.10 548.06 145.35 529.41&#10;  Q 143.71 527.68 142.62 526.17&#10;  A 2.01 2.01 0.0 0 1 142.75 523.64&#10;  C 150.10 515.47 159.01 507.18 166.61 499.80&#10;  Q 166.68 499.73 179.37 487.70&#10;  Q 195.10 472.78 209.02 457.52&#10;  Q 213.91 452.15 228.87 437.51&#10;  Q 233.01 433.46 243.52 423.91&#10;  Q 258.29 410.49 271.38 395.38&#10;  Q 274.75 391.49 295.15 371.53&#10;  C 298.48 368.27 302.72 365.05 305.95 361.94&#10;  Q 319.76 348.64 336.24 330.98&#10;  Q 350.35 315.86 377.01 291.75&#10;  Q 382.47 286.81 394.07 273.82&#10;  Q 395.46 272.26 412.60 255.25&#10;  Q 418.83 249.06 427.23 241.61&#10;  Q 437.49 232.50 446.02 223.51&#10;  Q 461.51 207.20 475.17 193.67&#10;  Q 486.67 182.27 498.20 172.65&#10;  Q 499.98 171.16 501.18 171.30"/>
<path stroke="#89c8ff" d="&#10;  M 626.53 443.41&#10;  Q 627.65 454.48 626.30 469.03&#10;  Q 625.70 475.57 622.96 482.96&#10;  Q 614.98 504.48 599.85 519.34&#10;  C 588.73 530.25 579.98 538.27 568.22 543.49&#10;  Q 553.69 549.93 537.67 553.87&#10;  Q 536.11 554.26 536.08 555.86&#10;  Q 535.77 578.50 535.79 585.08&#10;  Q 536.09 682.47 535.92 691.25&#10;  Q 535.91 692.25 536.56 692.59&#10;  A 1.08 1.08 0.0 0 0 537.63 692.54&#10;  Q 548.80 685.28 562.36 677.10&#10;  Q 569.96 672.51 577.49 666.49&#10;  Q 580.04 664.45 608.12 641.86&#10;  Q 617.04 634.68 639.13 613.13&#10;  Q 641.47 610.85 643.52 608.29&#10;  Q 648.39 602.21 659.18 588.17&#10;  Q 666.25 578.98 680.46 554.47&#10;  Q 684.30 547.84 688.44 537.23&#10;  Q 701.37 504.11 703.65 470.02&#10;  Q 704.24 461.18 703.63 450.05&#10;  Q 701.75 415.79 688.52 384.09&#10;  Q 684.50 374.46 679.56 366.30&#10;  Q 668.17 347.48 659.72 337.62&#10;  Q 659.03 336.81 643.33 318.26&#10;  C 639.66 313.92 635.81 310.57 631.52 307.62&#10;  Q 625.58 303.52 620.18 299.38&#10;  Q 614.26 294.82 611.37 292.77&#10;  Q 604.73 288.04 602.23 286.42&#10;  Q 598.62 284.08 585.81 276.15&#10;  Q 576.30 270.26 569.06 266.69&#10;  Q 552.96 258.74 537.28 253.05&#10;  A 1.00 1.00 0.0 0 0 535.94 253.99&#10;  L 535.94 489.58&#10;  A 1.32 1.32 0.0 0 0 537.49 490.88&#10;  Q 547.62 489.02 554.15 487.61&#10;  Q 567.17 484.79 579.45 479.15&#10;  Q 581.76 478.09 583.64 476.87&#10;  Q 586.07 475.28 587.72 474.37&#10;  Q 590.47 472.86 593.82 470.59&#10;  Q 611.27 458.76 625.27 443.00&#10;  A 0.73 0.72 62.9 0 1 626.53 443.41"/>
<path stroke="#89c8ff" d="&#10;  M 858.21 526.60&#10;  Q 857.91 527.11 857.11 527.86&#10;  Q 843.78 540.42 833.68 551.09&#10;  Q 831.16 553.75 827.94 556.52&#10;  Q 823.53 560.32 822.04 561.79&#10;  Q 800.51 583.16 778.17 605.17&#10;  C 774.95 608.34 769.48 614.25 765.28 618.28&#10;  Q 743.76 638.92 716.52 665.33&#10;  C 713.08 668.66 710.38 671.66 706.91 675.50&#10;  C 702.13 680.78 695.01 686.46 690.37 690.86&#10;  Q 682.04 698.78 658.45 721.95&#10;  Q 653.37 726.93 649.25 731.43&#10;  Q 644.42 736.70 639.93 740.77&#10;  Q 633.95 746.19 603.36 775.86&#10;  Q 584.58 794.07 583.01 795.83&#10;  Q 578.58 800.81 574.30 804.45&#10;  Q 572.42 806.05 565.20 812.70&#10;  Q 556.61 820.63 546.62 830.63&#10;  Q 540.61 836.64 532.65 843.65&#10;  Q 522.30 852.75 514.57 862.34&#10;  C 513.46 863.72 511.37 865.14 510.00 866.32&#10;  A 1.81 1.81 0.0 0 0 509.94 869.01&#10;  Q 516.31 875.04 520.77 880.29&#10;  Q 525.12 885.42 530.95 891.18&#10;  Q 541.66 901.76 564.96 925.54&#10;  Q 567.21 927.84 570.56 930.46&#10;  Q 573.21 932.52 575.66 929.93&#10;  C 578.58 926.82 583.75 920.98 587.93 916.82&#10;  Q 607.29 897.54 626.69 878.29&#10;  Q 629.44 875.57 635.65 870.09&#10;  Q 640.24 866.05 644.45 861.64&#10;  Q 656.00 849.54 656.12 849.43&#10;  Q 678.14 827.84 690.77 815.66&#10;  Q 698.23 808.47 705.05 801.64&#10;  Q 731.55 775.15 754.04 753.43&#10;  Q 761.35 746.37 768.31 739.42&#10;  Q 783.58 724.18 813.55 694.66&#10;  C 818.74 689.55 826.36 682.49 832.55 676.17&#10;  Q 844.95 663.50 845.04 663.41&#10;  Q 869.78 638.74 880.80 627.71&#10;  C 884.38 624.14 889.86 619.27 892.92 616.17&#10;  C 901.19 607.79 910.32 598.37 919.38 589.64&#10;  Q 947.95 562.10 978.87 530.63&#10;  Q 981.62 527.84 982.52 526.02&#10;  Q 982.75 525.56 982.61 525.07&#10;  Q 982.26 523.73 981.06 522.56&#10;  Q 979.62 521.15 969.32 510.87&#10;  Q 968.90 510.44 957.97 498.85&#10;  C 953.19 493.78 946.98 488.48 942.86 484.37&#10;  Q 909.10 450.72 900.31 441.83&#10;  Q 893.16 434.60 886.70 428.28&#10;  Q 869.72 411.69 846.56 389.20&#10;  Q 840.21 383.04 833.20 374.93&#10;  C 827.36 368.19 818.85 361.87 812.81 355.88&#10;  Q 805.80 348.94 793.72 337.24&#10;  Q 785.81 329.57 779.94 324.48&#10;  Q 779.90 324.44 766.12 312.65&#10;  Q 761.28 308.52 759.90 307.60&#10;  Q 735.82 291.58 732.12 289.21&#10;  Q 727.74 286.40 725.87 285.66&#10;  Q 724.58 285.16 724.45 286.32&#10;  A 1.09 1.08 34.7 0 0 724.56 286.91&#10;  Q 729.85 297.29 734.46 306.79&#10;  Q 739.08 316.30 741.63 323.40&#10;  Q 744.60 331.66 747.41 340.57&#10;  Q 753.63 360.36 758.54 380.38&#10;  Q 763.04 398.72 763.34 399.81&#10;  Q 769.29 421.64 770.40 425.09&#10;  Q 775.51 440.96 784.41 453.67&#10;  Q 789.87 461.49 801.14 469.62&#10;  Q 802.84 470.85 805.11 472.91&#10;  Q 805.20 472.99 808.86 476.40&#10;  Q 811.37 478.73 828.13 494.12&#10;  Q 830.11 495.93 832.55 498.53&#10;  Q 833.04 499.05 836.43 502.67&#10;  Q 841.47 508.07 857.92 524.45&#10;  Q 858.89 525.41 858.21 526.60"/>
<path stroke="#89c8ff" d="&#10;  M 457.66 677.74&#10;  Q 457.80 677.72 457.96 677.74&#10;  Q 458.00 677.75 458.03 677.74&#10;  Q 458.05 677.73 458.06 677.72&#10;  Q 458.17 677.67 458.07 677.65&#10;  Q 441.71 673.92 431.50 669.46&#10;  Q 417.97 663.54 403.93 651.51&#10;  Q 398.35 646.72 393.63 639.82&#10;  Q 388.74 632.66 384.12 624.92&#10;  Q 377.46 613.78 374.46 602.56&#10;  C 373.29 598.18 373.36 594.37 372.61 590.30&#10;  C 371.83 586.03 371.89 580.43 371.93 575.94&#10;  A 0.85 0.85 0.0 0 1 373.02 575.13&#10;  Q 375.48 575.86 377.59 577.94&#10;  Q 377.88 578.22 385.25 585.37&#10;  Q 397.33 597.09 411.97 603.86&#10;  Q 420.62 607.86 428.07 610.16&#10;  Q 439.59 613.73 454.36 616.65&#10;  Q 456.23 617.01 459.39 617.30&#10;  A 1.39 1.39 0.0 0 0 460.90 615.91&#10;  L 460.90 356.15&#10;  A 0.73 0.73 0.0 0 0 459.76 355.55&#10;  Q 452.68 360.42 445.19 364.82&#10;  Q 435.85 370.29 430.63 374.15&#10;  Q 418.34 383.22 409.49 390.64&#10;  Q 405.34 394.12 394.66 404.05&#10;  Q 386.48 411.67 376.27 420.53&#10;  Q 363.33 431.76 349.65 446.40&#10;  Q 345.79 450.52 337.55 460.90&#10;  Q 332.63 467.10 327.21 476.64&#10;  Q 326.16 478.48 316.91 494.14&#10;  Q 305.74 513.07 299.20 540.59&#10;  Q 297.83 546.33 297.59 548.51&#10;  Q 297.19 552.19 296.33 556.47&#10;  Q 295.36 561.31 295.23 568.52&#10;  Q 294.87 587.85 295.19 591.80&#10;  Q 296.27 604.71 298.46 614.89&#10;  Q 304.22 641.65 316.73 666.62&#10;  C 321.22 675.57 325.58 681.41 332.47 691.80&#10;  Q 338.33 700.61 347.20 710.57&#10;  Q 350.72 714.52 365.63 728.83&#10;  Q 369.13 732.19 372.88 735.09&#10;  Q 378.55 739.48 381.39 741.28&#10;  Q 387.04 744.85 394.79 750.61&#10;  Q 406.21 759.09 418.80 765.39&#10;  Q 430.25 771.12 432.46 772.29&#10;  Q 439.21 775.86 445.81 778.62&#10;  Q 450.39 780.53 459.55 784.58&#10;  A 0.95 0.94 12.0 0 0 460.88 783.72&#10;  L 460.88 679.77&#10;  A 1.03 1.01 26.6 0 0 460.66 679.14&#10;  Q 459.58 677.80 457.67 677.82&#10;  Q 457.08 677.82 457.66 677.74"/>
<path stroke="#89c8ff" d="&#10;  M 618.04 353.99&#10;  Q 610.17 343.66 597.84 340.77&#10;  Q 592.63 339.55 588.06 341.10&#10;  Q 576.85 344.90 569.91 354.69&#10;  Q 565.89 360.36 565.61 368.78&#10;  Q 565.35 376.69 566.51 379.68&#10;  Q 571.79 393.31 584.89 399.33&#10;  Q 587.81 400.68 591.83 400.83&#10;  Q 597.32 401.04 599.12 400.38&#10;  C 611.19 395.98 621.56 388.58 623.39 375.59&#10;  C 624.11 370.49 624.46 364.83 621.88 360.20&#10;  Q 619.47 355.87 618.04 353.99"/>
<path stroke="#89c8ff" d="&#10;  M 420.51 473.12&#10;  Q 413.27 467.78 404.77 466.93&#10;  C 394.80 465.94 387.16 471.01 380.69 478.15&#10;  Q 375.91 483.42 374.08 489.20&#10;  Q 371.29 498.04 376.18 507.94&#10;  Q 382.35 520.41 394.82 525.79&#10;  Q 401.04 528.47 408.53 525.74&#10;  C 415.71 523.12 421.07 520.44 425.37 515.12&#10;  Q 431.31 507.78 433.04 498.64&#10;  Q 433.43 496.60 432.47 492.97&#10;  C 430.27 484.69 427.03 477.92 420.51 473.12"/>
</g>
<path fill="#1391ff" d="&#10;  M 1000.00 0.00&#10;  L 1000.00 1000.00&#10;  L 0.00 1000.00&#10;  L 0.00 0.00&#10;  L 1000.00 0.00&#10;  Z&#10;  M 501.18 171.30&#10;  Q 502.75 171.47 504.62 172.98&#10;  Q 513.81 180.40 521.84 190.35&#10;  Q 525.16 194.46 527.89 197.24&#10;  Q 531.59 201.00 534.46 203.96&#10;  C 536.56 206.14 538.43 207.32 541.28 207.93&#10;  Q 558.71 211.69 575.59 218.11&#10;  Q 583.39 221.08 593.83 226.32&#10;  Q 624.26 241.60 627.23 243.10&#10;  C 635.37 247.20 641.96 252.23 648.87 258.32&#10;  Q 653.05 262.01 657.93 265.83&#10;  Q 670.64 275.78 681.92 288.55&#10;  Q 682.26 288.94 682.90 289.02&#10;  A 0.58 0.58 0.0 0 0 683.49 288.19&#10;  Q 682.87 286.90 676.82 273.58&#10;  Q 673.23 265.66 667.54 255.14&#10;  Q 663.79 248.22 657.15 238.18&#10;  Q 651.10 229.04 646.45 221.05&#10;  Q 640.59 210.99 635.72 204.14&#10;  Q 624.59 188.48 613.53 176.35&#10;  Q 609.39 171.81 604.65 165.91&#10;  Q 599.62 159.65 595.47 154.87&#10;  Q 586.01 143.97 584.35 141.66&#10;  Q 576.10 130.24 567.89 122.61&#10;  Q 557.65 113.11 549.77 104.61&#10;  Q 540.36 94.47 539.49 93.60&#10;  Q 523.65 77.79 511.00 63.92&#10;  Q 504.20 56.45 499.98 53.60&#10;  A 2.20 2.20 0.0 0 0 497.44 53.66&#10;  C 493.45 56.66 488.48 62.09 485.89 64.53&#10;  Q 470.87 78.67 464.86 84.62&#10;  Q 462.05 87.40 456.12 94.11&#10;  Q 447.94 103.37 439.21 111.11&#10;  Q 427.43 121.57 424.36 124.49&#10;  Q 413.91 134.43 408.94 139.30&#10;  Q 404.36 143.80 395.13 153.76&#10;  Q 387.17 162.35 380.72 168.55&#10;  Q 376.84 172.28 367.54 180.19&#10;  Q 360.05 186.55 354.46 191.95&#10;  Q 339.37 206.53 323.98 223.48&#10;  Q 320.44 227.38 303.47 243.08&#10;  Q 295.79 250.19 289.05 256.95&#10;  Q 250.79 295.35 247.61 298.51&#10;  Q 244.22 301.88 240.15 305.21&#10;  C 231.08 312.67 222.96 321.23 214.68 329.55&#10;  C 209.66 334.59 205.85 339.06 201.47 343.89&#10;  Q 198.07 347.65 191.12 354.21&#10;  Q 184.06 360.88 172.55 371.16&#10;  Q 166.63 376.45 158.26 385.15&#10;  Q 155.45 388.07 139.34 405.08&#10;  Q 129.15 415.84 115.93 427.81&#10;  Q 107.75 435.22 101.41 441.56&#10;  Q 93.36 449.61 78.28 465.04&#10;  Q 67.18 476.39 58.84 484.59&#10;  Q 53.87 489.48 41.45 500.69&#10;  Q 32.53 508.74 20.94 520.64&#10;  C 18.92 522.72 16.69 524.84 18.77 527.21&#10;  Q 30.95 541.06 40.22 549.41&#10;  Q 52.91 560.85 55.01 562.88&#10;  Q 69.51 576.92 83.01 591.85&#10;  Q 88.92 598.39 92.21 601.79&#10;  Q 99.24 609.06 101.78 611.21&#10;  Q 124.27 630.24 143.78 652.25&#10;  Q 151.51 660.97 155.20 664.79&#10;  Q 164.22 674.12 167.40 676.61&#10;  Q 173.20 681.14 178.38 686.36&#10;  Q 187.05 695.09 196.22 704.26&#10;  Q 201.27 709.31 209.82 718.91&#10;  Q 216.32 726.20 225.74 735.38&#10;  Q 227.54 737.13 233.47 742.13&#10;  Q 237.26 745.33 240.59 748.69&#10;  Q 243.77 751.89 259.55 767.79&#10;  Q 263.20 771.47 265.52 774.15&#10;  Q 267.23 776.11 271.21 780.83&#10;  Q 276.38 786.96 287.08 796.35&#10;  Q 293.30 801.81 302.92 808.52&#10;  Q 316.74 818.15 332.41 828.20&#10;  Q 337.02 831.16 342.42 834.10&#10;  C 352.06 839.36 361.60 844.97 370.85 851.21&#10;  Q 380.08 857.44 386.69 863.37&#10;  Q 411.34 885.47 424.13 915.44&#10;  Q 426.69 921.44 430.07 929.60&#10;  A 1.91 1.90 -19.8 0 0 432.40 930.69&#10;  C 433.46 930.36 434.41 928.94 435.07 928.33&#10;  Q 446.67 917.62 454.02 909.49&#10;  Q 462.48 900.13 466.87 895.89&#10;  Q 471.97 890.95 480.05 882.55&#10;  Q 484.66 877.77 495.02 868.32&#10;  A 2.07 2.07 0.0 0 0 494.87 865.12&#10;  Q 490.95 862.17 487.48 858.88&#10;  C 484.34 855.89 480.18 852.44 477.10 850.31&#10;  Q 453.71 834.15 430.34 825.24&#10;  Q 411.32 817.99 396.23 811.36&#10;  Q 394.93 810.78 384.39 806.10&#10;  Q 377.46 803.02 372.64 800.49&#10;  Q 352.87 790.12 334.61 776.18&#10;  Q 332.04 774.22 328.21 770.66&#10;  C 323.49 766.27 317.64 761.39 313.37 757.26&#10;  Q 304.16 748.34 302.66 746.98&#10;  Q 295.97 740.88 292.26 736.49&#10;  Q 285.04 727.94 279.22 720.44&#10;  Q 274.38 714.21 268.73 704.13&#10;  Q 257.90 684.81 254.58 678.36&#10;  Q 244.98 659.66 239.26 638.76&#10;  Q 237.96 634.03 237.00 628.20&#10;  Q 236.17 623.12 235.43 621.57&#10;  Q 233.96 618.51 231.12 615.84&#10;  Q 226.01 611.05 215.23 599.95&#10;  C 210.50 595.09 205.22 588.57 200.59 583.91&#10;  Q 192.28 575.55 178.96 562.29&#10;  Q 174.13 557.49 167.60 551.90&#10;  Q 163.10 548.06 145.35 529.41&#10;  Q 143.71 527.68 142.62 526.17&#10;  A 2.01 2.01 0.0 0 1 142.75 523.64&#10;  C 150.10 515.47 159.01 507.18 166.61 499.80&#10;  Q 166.68 499.73 179.37 487.70&#10;  Q 195.10 472.78 209.02 457.52&#10;  Q 213.91 452.15 228.87 437.51&#10;  Q 233.01 433.46 243.52 423.91&#10;  Q 258.29 410.49 271.38 395.38&#10;  Q 274.75 391.49 295.15 371.53&#10;  C 298.48 368.27 302.72 365.05 305.95 361.94&#10;  Q 319.76 348.64 336.24 330.98&#10;  Q 350.35 315.86 377.01 291.75&#10;  Q 382.47 286.81 394.07 273.82&#10;  Q 395.46 272.26 412.60 255.25&#10;  Q 418.83 249.06 427.23 241.61&#10;  Q 437.49 232.50 446.02 223.51&#10;  Q 461.51 207.20 475.17 193.67&#10;  Q 486.67 182.27 498.20 172.65&#10;  Q 499.98 171.16 501.18 171.30&#10;  Z&#10;  M 626.53 443.41&#10;  Q 627.65 454.48 626.30 469.03&#10;  Q 625.70 475.57 622.96 482.96&#10;  Q 614.98 504.48 599.85 519.34&#10;  C 588.73 530.25 579.98 538.27 568.22 543.49&#10;  Q 553.69 549.93 537.67 553.87&#10;  Q 536.11 554.26 536.08 555.86&#10;  Q 535.77 578.50 535.79 585.08&#10;  Q 536.09 682.47 535.92 691.25&#10;  Q 535.91 692.25 536.56 692.59&#10;  A 1.08 1.08 0.0 0 0 537.63 692.54&#10;  Q 548.80 685.28 562.36 677.10&#10;  Q 569.96 672.51 577.49 666.49&#10;  Q 580.04 664.45 608.12 641.86&#10;  Q 617.04 634.68 639.13 613.13&#10;  Q 641.47 610.85 643.52 608.29&#10;  Q 648.39 602.21 659.18 588.17&#10;  Q 666.25 578.98 680.46 554.47&#10;  Q 684.30 547.84 688.44 537.23&#10;  Q 701.37 504.11 703.65 470.02&#10;  Q 704.24 461.18 703.63 450.05&#10;  Q 701.75 415.79 688.52 384.09&#10;  Q 684.50 374.46 679.56 366.30&#10;  Q 668.17 347.48 659.72 337.62&#10;  Q 659.03 336.81 643.33 318.26&#10;  C 639.66 313.92 635.81 310.57 631.52 307.62&#10;  Q 625.58 303.52 620.18 299.38&#10;  Q 614.26 294.82 611.37 292.77&#10;  Q 604.73 288.04 602.23 286.42&#10;  Q 598.62 284.08 585.81 276.15&#10;  Q 576.30 270.26 569.06 266.69&#10;  Q 552.96 258.74 537.28 253.05&#10;  A 1.00 1.00 0.0 0 0 535.94 253.99&#10;  L 535.94 489.58&#10;  A 1.32 1.32 0.0 0 0 537.49 490.88&#10;  Q 547.62 489.02 554.15 487.61&#10;  Q 567.17 484.79 579.45 479.15&#10;  Q 581.76 478.09 583.64 476.87&#10;  Q 586.07 475.28 587.72 474.37&#10;  Q 590.47 472.86 593.82 470.59&#10;  Q 611.27 458.76 625.27 443.00&#10;  A 0.73 0.72 62.9 0 1 626.53 443.41&#10;  Z&#10;  M 858.21 526.60&#10;  Q 857.91 527.11 857.11 527.86&#10;  Q 843.78 540.42 833.68 551.09&#10;  Q 831.16 553.75 827.94 556.52&#10;  Q 823.53 560.32 822.04 561.79&#10;  Q 800.51 583.16 778.17 605.17&#10;  C 774.95 608.34 769.48 614.25 765.28 618.28&#10;  Q 743.76 638.92 716.52 665.33&#10;  C 713.08 668.66 710.38 671.66 706.91 675.50&#10;  C 702.13 680.78 695.01 686.46 690.37 690.86&#10;  Q 682.04 698.78 658.45 721.95&#10;  Q 653.37 726.93 649.25 731.43&#10;  Q 644.42 736.70 639.93 740.77&#10;  Q 633.95 746.19 603.36 775.86&#10;  Q 584.58 794.07 583.01 795.83&#10;  Q 578.58 800.81 574.30 804.45&#10;  Q 572.42 806.05 565.20 812.70&#10;  Q 556.61 820.63 546.62 830.63&#10;  Q 540.61 836.64 532.65 843.65&#10;  Q 522.30 852.75 514.57 862.34&#10;  C 513.46 863.72 511.37 865.14 510.00 866.32&#10;  A 1.81 1.81 0.0 0 0 509.94 869.01&#10;  Q 516.31 875.04 520.77 880.29&#10;  Q 525.12 885.42 530.95 891.18&#10;  Q 541.66 901.76 564.96 925.54&#10;  Q 567.21 927.84 570.56 930.46&#10;  Q 573.21 932.52 575.66 929.93&#10;  C 578.58 926.82 583.75 920.98 587.93 916.82&#10;  Q 607.29 897.54 626.69 878.29&#10;  Q 629.44 875.57 635.65 870.09&#10;  Q 640.24 866.05 644.45 861.64&#10;  Q 656.00 849.54 656.12 849.43&#10;  Q 678.14 827.84 690.77 815.66&#10;  Q 698.23 808.47 705.05 801.64&#10;  Q 731.55 775.15 754.04 753.43&#10;  Q 761.35 746.37 768.31 739.42&#10;  Q 783.58 724.18 813.55 694.66&#10;  C 818.74 689.55 826.36 682.49 832.55 676.17&#10;  Q 844.95 663.50 845.04 663.41&#10;  Q 869.78 638.74 880.80 627.71&#10;  C 884.38 624.14 889.86 619.27 892.92 616.17&#10;  C 901.19 607.79 910.32 598.37 919.38 589.64&#10;  Q 947.95 562.10 978.87 530.63&#10;  Q 981.62 527.84 982.52 526.02&#10;  Q 982.75 525.56 982.61 525.07&#10;  Q 982.26 523.73 981.06 522.56&#10;  Q 979.62 521.15 969.32 510.87&#10;  Q 968.90 510.44 957.97 498.85&#10;  C 953.19 493.78 946.98 488.48 942.86 484.37&#10;  Q 909.10 450.72 900.31 441.83&#10;  Q 893.16 434.60 886.70 428.28&#10;  Q 869.72 411.69 846.56 389.20&#10;  Q 840.21 383.04 833.20 374.93&#10;  C 827.36 368.19 818.85 361.87 812.81 355.88&#10;  Q 805.80 348.94 793.72 337.24&#10;  Q 785.81 329.57 779.94 324.48&#10;  Q 779.90 324.44 766.12 312.65&#10;  Q 761.28 308.52 759.90 307.60&#10;  Q 735.82 291.58 732.12 289.21&#10;  Q 727.74 286.40 725.87 285.66&#10;  Q 724.58 285.16 724.45 286.32&#10;  A 1.09 1.08 34.7 0 0 724.56 286.91&#10;  Q 729.85 297.29 734.46 306.79&#10;  Q 739.08 316.30 741.63 323.40&#10;  Q 744.60 331.66 747.41 340.57&#10;  Q 753.63 360.36 758.54 380.38&#10;  Q 763.04 398.72 763.34 399.81&#10;  Q 769.29 421.64 770.40 425.09&#10;  Q 775.51 440.96 784.41 453.67&#10;  Q 789.87 461.49 801.14 469.62&#10;  Q 802.84 470.85 805.11 472.91&#10;  Q 805.20 472.99 808.86 476.40&#10;  Q 811.37 478.73 828.13 494.12&#10;  Q 830.11 495.93 832.55 498.53&#10;  Q 833.04 499.05 836.43 502.67&#10;  Q 841.47 508.07 857.92 524.45&#10;  Q 858.89 525.41 858.21 526.60&#10;  Z&#10;  M 457.66 677.74&#10;  Q 457.80 677.72 457.96 677.74&#10;  Q 458.00 677.75 458.03 677.74&#10;  Q 458.05 677.73 458.06 677.72&#10;  Q 458.17 677.67 458.07 677.65&#10;  Q 441.71 673.92 431.50 669.46&#10;  Q 417.97 663.54 403.93 651.51&#10;  Q 398.35 646.72 393.63 639.82&#10;  Q 388.74 632.66 384.12 624.92&#10;  Q 377.46 613.78 374.46 602.56&#10;  C 373.29 598.18 373.36 594.37 372.61 590.30&#10;  C 371.83 586.03 371.89 580.43 371.93 575.94&#10;  A 0.85 0.85 0.0 0 1 373.02 575.13&#10;  Q 375.48 575.86 377.59 577.94&#10;  Q 377.88 578.22 385.25 585.37&#10;  Q 397.33 597.09 411.97 603.86&#10;  Q 420.62 607.86 428.07 610.16&#10;  Q 439.59 613.73 454.36 616.65&#10;  Q 456.23 617.01 459.39 617.30&#10;  A 1.39 1.39 0.0 0 0 460.90 615.91&#10;  L 460.90 356.15&#10;  A 0.73 0.73 0.0 0 0 459.76 355.55&#10;  Q 452.68 360.42 445.19 364.82&#10;  Q 435.85 370.29 430.63 374.15&#10;  Q 418.34 383.22 409.49 390.64&#10;  Q 405.34 394.12 394.66 404.05&#10;  Q 386.48 411.67 376.27 420.53&#10;  Q 363.33 431.76 349.65 446.40&#10;  Q 345.79 450.52 337.55 460.90&#10;  Q 332.63 467.10 327.21 476.64&#10;  Q 326.16 478.48 316.91 494.14&#10;  Q 305.74 513.07 299.20 540.59&#10;  Q 297.83 546.33 297.59 548.51&#10;  Q 297.19 552.19 296.33 556.47&#10;  Q 295.36 561.31 295.23 568.52&#10;  Q 294.87 587.85 295.19 591.80&#10;  Q 296.27 604.71 298.46 614.89&#10;  Q 304.22 641.65 316.73 666.62&#10;  C 321.22 675.57 325.58 681.41 332.47 691.80&#10;  Q 338.33 700.61 347.20 710.57&#10;  Q 350.72 714.52 365.63 728.83&#10;  Q 369.13 732.19 372.88 735.09&#10;  Q 378.55 739.48 381.39 741.28&#10;  Q 387.04 744.85 394.79 750.61&#10;  Q 406.21 759.09 418.80 765.39&#10;  Q 430.25 771.12 432.46 772.29&#10;  Q 439.21 775.86 445.81 778.62&#10;  Q 450.39 780.53 459.55 784.58&#10;  A 0.95 0.94 12.0 0 0 460.88 783.72&#10;  L 460.88 679.77&#10;  A 1.03 1.01 26.6 0 0 460.66 679.14&#10;  Q 459.58 677.80 457.67 677.82&#10;  Q 457.08 677.82 457.66 677.74&#10;  Z"/>
<path fill="#ffffff" d="&#10;  M 498.20 172.65&#10;  Q 486.67 182.27 475.17 193.67&#10;  Q 461.51 207.20 446.02 223.51&#10;  Q 437.49 232.50 427.23 241.61&#10;  Q 418.83 249.06 412.60 255.25&#10;  Q 395.46 272.26 394.07 273.82&#10;  Q 382.47 286.81 377.01 291.75&#10;  Q 350.35 315.86 336.24 330.98&#10;  Q 319.76 348.64 305.95 361.94&#10;  C 302.72 365.05 298.48 368.27 295.15 371.53&#10;  Q 274.75 391.49 271.38 395.38&#10;  Q 258.29 410.49 243.52 423.91&#10;  Q 233.01 433.46 228.87 437.51&#10;  Q 213.91 452.15 209.02 457.52&#10;  Q 195.10 472.78 179.37 487.70&#10;  Q 166.68 499.73 166.61 499.80&#10;  C 159.01 507.18 150.10 515.47 142.75 523.64&#10;  A 2.01 2.01 0.0 0 0 142.62 526.17&#10;  Q 143.71 527.68 145.35 529.41&#10;  Q 163.10 548.06 167.60 551.90&#10;  Q 174.13 557.49 178.96 562.29&#10;  Q 192.28 575.55 200.59 583.91&#10;  C 205.22 588.57 210.50 595.09 215.23 599.95&#10;  Q 226.01 611.05 231.12 615.84&#10;  Q 233.96 618.51 235.43 621.57&#10;  Q 236.17 623.12 237.00 628.20&#10;  Q 237.96 634.03 239.26 638.76&#10;  Q 244.98 659.66 254.58 678.36&#10;  Q 257.90 684.81 268.73 704.13&#10;  Q 274.38 714.21 279.22 720.44&#10;  Q 285.04 727.94 292.26 736.49&#10;  Q 295.97 740.88 302.66 746.98&#10;  Q 304.16 748.34 313.37 757.26&#10;  C 317.64 761.39 323.49 766.27 328.21 770.66&#10;  Q 332.04 774.22 334.61 776.18&#10;  Q 352.87 790.12 372.64 800.49&#10;  Q 377.46 803.02 384.39 806.10&#10;  Q 394.93 810.78 396.23 811.36&#10;  Q 411.32 817.99 430.34 825.24&#10;  Q 453.71 834.15 477.10 850.31&#10;  C 480.18 852.44 484.34 855.89 487.48 858.88&#10;  Q 490.95 862.17 494.87 865.12&#10;  A 2.07 2.07 0.0 0 1 495.02 868.32&#10;  Q 484.66 877.77 480.05 882.55&#10;  Q 471.97 890.95 466.87 895.89&#10;  Q 462.48 900.13 454.02 909.49&#10;  Q 446.67 917.62 435.07 928.33&#10;  C 434.41 928.94 433.46 930.36 432.40 930.69&#10;  A 1.91 1.90 -19.8 0 1 430.07 929.60&#10;  Q 426.69 921.44 424.13 915.44&#10;  Q 411.34 885.47 386.69 863.37&#10;  Q 380.08 857.44 370.85 851.21&#10;  C 361.60 844.97 352.06 839.36 342.42 834.10&#10;  Q 337.02 831.16 332.41 828.20&#10;  Q 316.74 818.15 302.92 808.52&#10;  Q 293.30 801.81 287.08 796.35&#10;  Q 276.38 786.96 271.21 780.83&#10;  Q 267.23 776.11 265.52 774.15&#10;  Q 263.20 771.47 259.55 767.79&#10;  Q 243.77 751.89 240.59 748.69&#10;  Q 237.26 745.33 233.47 742.13&#10;  Q 227.54 737.13 225.74 735.38&#10;  Q 216.32 726.20 209.82 718.91&#10;  Q 201.27 709.31 196.22 704.26&#10;  Q 187.05 695.09 178.38 686.36&#10;  Q 173.20 681.14 167.40 676.61&#10;  Q 164.22 674.12 155.20 664.79&#10;  Q 151.51 660.97 143.78 652.25&#10;  Q 124.27 630.24 101.78 611.21&#10;  Q 99.24 609.06 92.21 601.79&#10;  Q 88.92 598.39 83.01 591.85&#10;  Q 69.51 576.92 55.01 562.88&#10;  Q 52.91 560.85 40.22 549.41&#10;  Q 30.95 541.06 18.77 527.21&#10;  C 16.69 524.84 18.92 522.72 20.94 520.64&#10;  Q 32.53 508.74 41.45 500.69&#10;  Q 53.87 489.48 58.84 484.59&#10;  Q 67.18 476.39 78.28 465.04&#10;  Q 93.36 449.61 101.41 441.56&#10;  Q 107.75 435.22 115.93 427.81&#10;  Q 129.15 415.84 139.34 405.08&#10;  Q 155.45 388.07 158.26 385.15&#10;  Q 166.63 376.45 172.55 371.16&#10;  Q 184.06 360.88 191.12 354.21&#10;  Q 198.07 347.65 201.47 343.89&#10;  C 205.85 339.06 209.66 334.59 214.68 329.55&#10;  C 222.96 321.23 231.08 312.67 240.15 305.21&#10;  Q 244.22 301.88 247.61 298.51&#10;  Q 250.79 295.35 289.05 256.95&#10;  Q 295.79 250.19 303.47 243.08&#10;  Q 320.44 227.38 323.98 223.48&#10;  Q 339.37 206.53 354.46 191.95&#10;  Q 360.05 186.55 367.54 180.19&#10;  Q 376.84 172.28 380.72 168.55&#10;  Q 387.17 162.35 395.13 153.76&#10;  Q 404.36 143.80 408.94 139.30&#10;  Q 413.91 134.43 424.36 124.49&#10;  Q 427.43 121.57 439.21 111.11&#10;  Q 447.94 103.37 456.12 94.11&#10;  Q 462.05 87.40 464.86 84.62&#10;  Q 470.87 78.67 485.89 64.53&#10;  C 488.48 62.09 493.45 56.66 497.44 53.66&#10;  A 2.20 2.20 0.0 0 1 499.98 53.60&#10;  Q 504.20 56.45 511.00 63.92&#10;  Q 523.65 77.79 539.49 93.60&#10;  Q 540.36 94.47 549.77 104.61&#10;  Q 557.65 113.11 567.89 122.61&#10;  Q 576.10 130.24 584.35 141.66&#10;  Q 586.01 143.97 595.47 154.87&#10;  Q 599.62 159.65 604.65 165.91&#10;  Q 609.39 171.81 613.53 176.35&#10;  Q 624.59 188.48 635.72 204.14&#10;  Q 640.59 210.99 646.45 221.05&#10;  Q 651.10 229.04 657.15 238.18&#10;  Q 663.79 248.22 667.54 255.14&#10;  Q 673.23 265.66 676.82 273.58&#10;  Q 682.87 286.90 683.49 288.19&#10;  A 0.58 0.58 0.0 0 1 682.90 289.02&#10;  Q 682.26 288.94 681.92 288.55&#10;  Q 670.64 275.78 657.93 265.83&#10;  Q 653.05 262.01 648.87 258.32&#10;  C 641.96 252.23 635.37 247.20 627.23 243.10&#10;  Q 624.26 241.60 593.83 226.32&#10;  Q 583.39 221.08 575.59 218.11&#10;  Q 558.71 211.69 541.28 207.93&#10;  C 538.43 207.32 536.56 206.14 534.46 203.96&#10;  Q 531.59 201.00 527.89 197.24&#10;  Q 525.16 194.46 521.84 190.35&#10;  Q 513.81 180.40 504.62 172.98&#10;  Q 502.75 171.47 501.18 171.30&#10;  Q 499.98 171.16 498.20 172.65&#10;  Z"/>
<path fill="#ffffff" d="&#10;  M 626.53 443.41&#10;  A 0.73 0.72 62.9 0 0 625.27 443.00&#10;  Q 611.27 458.76 593.82 470.59&#10;  Q 590.47 472.86 587.72 474.37&#10;  Q 586.07 475.28 583.64 476.87&#10;  Q 581.76 478.09 579.45 479.15&#10;  Q 567.17 484.79 554.15 487.61&#10;  Q 547.62 489.02 537.49 490.88&#10;  A 1.32 1.32 0.0 0 1 535.94 489.58&#10;  L 535.94 253.99&#10;  A 1.00 1.00 0.0 0 1 537.28 253.05&#10;  Q 552.96 258.74 569.06 266.69&#10;  Q 576.30 270.26 585.81 276.15&#10;  Q 598.62 284.08 602.23 286.42&#10;  Q 604.73 288.04 611.37 292.77&#10;  Q 614.26 294.82 620.18 299.38&#10;  Q 625.58 303.52 631.52 307.62&#10;  C 635.81 310.57 639.66 313.92 643.33 318.26&#10;  Q 659.03 336.81 659.72 337.62&#10;  Q 668.17 347.48 679.56 366.30&#10;  Q 684.50 374.46 688.52 384.09&#10;  Q 701.75 415.79 703.63 450.05&#10;  Q 704.24 461.18 703.65 470.02&#10;  Q 701.37 504.11 688.44 537.23&#10;  Q 684.30 547.84 680.46 554.47&#10;  Q 666.25 578.98 659.18 588.17&#10;  Q 648.39 602.21 643.52 608.29&#10;  Q 641.47 610.85 639.13 613.13&#10;  Q 617.04 634.68 608.12 641.86&#10;  Q 580.04 664.45 577.49 666.49&#10;  Q 569.96 672.51 562.36 677.10&#10;  Q 548.80 685.28 537.63 692.54&#10;  A 1.08 1.08 0.0 0 1 536.56 692.59&#10;  Q 535.91 692.25 535.92 691.25&#10;  Q 536.09 682.47 535.79 585.08&#10;  Q 535.77 578.50 536.08 555.86&#10;  Q 536.11 554.26 537.67 553.87&#10;  Q 553.69 549.93 568.22 543.49&#10;  C 579.98 538.27 588.73 530.25 599.85 519.34&#10;  Q 614.98 504.48 622.96 482.96&#10;  Q 625.70 475.57 626.30 469.03&#10;  Q 627.65 454.48 626.53 443.41&#10;  Z&#10;  M 618.04 353.99&#10;  Q 610.17 343.66 597.84 340.77&#10;  Q 592.63 339.55 588.06 341.10&#10;  Q 576.85 344.90 569.91 354.69&#10;  Q 565.89 360.36 565.61 368.78&#10;  Q 565.35 376.69 566.51 379.68&#10;  Q 571.79 393.31 584.89 399.33&#10;  Q 587.81 400.68 591.83 400.83&#10;  Q 597.32 401.04 599.12 400.38&#10;  C 611.19 395.98 621.56 388.58 623.39 375.59&#10;  C 624.11 370.49 624.46 364.83 621.88 360.20&#10;  Q 619.47 355.87 618.04 353.99&#10;  Z"/>
<path fill="#ffffff" d="&#10;  M 858.21 526.60&#10;  Q 858.89 525.41 857.92 524.45&#10;  Q 841.47 508.07 836.43 502.67&#10;  Q 833.04 499.05 832.55 498.53&#10;  Q 830.11 495.93 828.13 494.12&#10;  Q 811.37 478.73 808.86 476.40&#10;  Q 805.20 472.99 805.11 472.91&#10;  Q 802.84 470.85 801.14 469.62&#10;  Q 789.87 461.49 784.41 453.67&#10;  Q 775.51 440.96 770.40 425.09&#10;  Q 769.29 421.64 763.34 399.81&#10;  Q 763.04 398.72 758.54 380.38&#10;  Q 753.63 360.36 747.41 340.57&#10;  Q 744.60 331.66 741.63 323.40&#10;  Q 739.08 316.30 734.46 306.79&#10;  Q 729.85 297.29 724.56 286.91&#10;  A 1.09 1.08 34.7 0 1 724.45 286.32&#10;  Q 724.58 285.16 725.87 285.66&#10;  Q 727.74 286.40 732.12 289.21&#10;  Q 735.82 291.58 759.90 307.60&#10;  Q 761.28 308.52 766.12 312.65&#10;  Q 779.90 324.44 779.94 324.48&#10;  Q 785.81 329.57 793.72 337.24&#10;  Q 805.80 348.94 812.81 355.88&#10;  C 818.85 361.87 827.36 368.19 833.20 374.93&#10;  Q 840.21 383.04 846.56 389.20&#10;  Q 869.72 411.69 886.70 428.28&#10;  Q 893.16 434.60 900.31 441.83&#10;  Q 909.10 450.72 942.86 484.37&#10;  C 946.98 488.48 953.19 493.78 957.97 498.85&#10;  Q 968.90 510.44 969.32 510.87&#10;  Q 979.62 521.15 981.06 522.56&#10;  Q 982.26 523.73 982.61 525.07&#10;  Q 982.75 525.56 982.52 526.02&#10;  Q 981.62 527.84 978.87 530.63&#10;  Q 947.95 562.10 919.38 589.64&#10;  C 910.32 598.37 901.19 607.79 892.92 616.17&#10;  C 889.86 619.27 884.38 624.14 880.80 627.71&#10;  Q 869.78 638.74 845.04 663.41&#10;  Q 844.95 663.50 832.55 676.17&#10;  C 826.36 682.49 818.74 689.55 813.55 694.66&#10;  Q 783.58 724.18 768.31 739.42&#10;  Q 761.35 746.37 754.04 753.43&#10;  Q 731.55 775.15 705.05 801.64&#10;  Q 698.23 808.47 690.77 815.66&#10;  Q 678.14 827.84 656.12 849.43&#10;  Q 656.00 849.54 644.45 861.64&#10;  Q 640.24 866.05 635.65 870.09&#10;  Q 629.44 875.57 626.69 878.29&#10;  Q 607.29 897.54 587.93 916.82&#10;  C 583.75 920.98 578.58 926.82 575.66 929.93&#10;  Q 573.21 932.52 570.56 930.46&#10;  Q 567.21 927.84 564.96 925.54&#10;  Q 541.66 901.76 530.95 891.18&#10;  Q 525.12 885.42 520.77 880.29&#10;  Q 516.31 875.04 509.94 869.01&#10;  A 1.81 1.81 0.0 0 1 510.00 866.32&#10;  C 511.37 865.14 513.46 863.72 514.57 862.34&#10;  Q 522.30 852.75 532.65 843.65&#10;  Q 540.61 836.64 546.62 830.63&#10;  Q 556.61 820.63 565.20 812.70&#10;  Q 572.42 806.05 574.30 804.45&#10;  Q 578.58 800.81 583.01 795.83&#10;  Q 584.58 794.07 603.36 775.86&#10;  Q 633.95 746.19 639.93 740.77&#10;  Q 644.42 736.70 649.25 731.43&#10;  Q 653.37 726.93 658.45 721.95&#10;  Q 682.04 698.78 690.37 690.86&#10;  C 695.01 686.46 702.13 680.78 706.91 675.50&#10;  C 710.38 671.66 713.08 668.66 716.52 665.33&#10;  Q 743.76 638.92 765.28 618.28&#10;  C 769.48 614.25 774.95 608.34 778.17 605.17&#10;  Q 800.51 583.16 822.04 561.79&#10;  Q 823.53 560.32 827.94 556.52&#10;  Q 831.16 553.75 833.68 551.09&#10;  Q 843.78 540.42 857.11 527.86&#10;  Q 857.91 527.11 858.21 526.60&#10;  Z"/>
<path fill="#1391ff" d="&#10;  M 618.04 353.99&#10;  Q 619.47 355.87 621.88 360.20&#10;  C 624.46 364.83 624.11 370.49 623.39 375.59&#10;  C 621.56 388.58 611.19 395.98 599.12 400.38&#10;  Q 597.32 401.04 591.83 400.83&#10;  Q 587.81 400.68 584.89 399.33&#10;  Q 571.79 393.31 566.51 379.68&#10;  Q 565.35 376.69 565.61 368.78&#10;  Q 565.89 360.36 569.91 354.69&#10;  Q 576.85 344.90 588.06 341.10&#10;  Q 592.63 339.55 597.84 340.77&#10;  Q 610.17 343.66 618.04 353.99&#10;  Z"/>
<path fill="#ffffff" d="&#10;  M 457.67 677.82&#10;  Q 459.58 677.80 460.66 679.14&#10;  A 1.03 1.01 26.6 0 1 460.88 679.77&#10;  L 460.88 783.72&#10;  A 0.95 0.94 12.0 0 1 459.55 784.58&#10;  Q 450.39 780.53 445.81 778.62&#10;  Q 439.21 775.86 432.46 772.29&#10;  Q 430.25 771.12 418.80 765.39&#10;  Q 406.21 759.09 394.79 750.61&#10;  Q 387.04 744.85 381.39 741.28&#10;  Q 378.55 739.48 372.88 735.09&#10;  Q 369.13 732.19 365.63 728.83&#10;  Q 350.72 714.52 347.20 710.57&#10;  Q 338.33 700.61 332.47 691.80&#10;  C 325.58 681.41 321.22 675.57 316.73 666.62&#10;  Q 304.22 641.65 298.46 614.89&#10;  Q 296.27 604.71 295.19 591.80&#10;  Q 294.87 587.85 295.23 568.52&#10;  Q 295.36 561.31 296.33 556.47&#10;  Q 297.19 552.19 297.59 548.51&#10;  Q 297.83 546.33 299.20 540.59&#10;  Q 305.74 513.07 316.91 494.14&#10;  Q 326.16 478.48 327.21 476.64&#10;  Q 332.63 467.10 337.55 460.90&#10;  Q 345.79 450.52 349.65 446.40&#10;  Q 363.33 431.76 376.27 420.53&#10;  Q 386.48 411.67 394.66 404.05&#10;  Q 405.34 394.12 409.49 390.64&#10;  Q 418.34 383.22 430.63 374.15&#10;  Q 435.85 370.29 445.19 364.82&#10;  Q 452.68 360.42 459.76 355.55&#10;  A 0.73 0.73 0.0 0 1 460.90 356.15&#10;  L 460.90 615.91&#10;  A 1.39 1.39 0.0 0 1 459.39 617.30&#10;  Q 456.23 617.01 454.36 616.65&#10;  Q 439.59 613.73 428.07 610.16&#10;  Q 420.62 607.86 411.97 603.86&#10;  Q 397.33 597.09 385.25 585.37&#10;  Q 377.88 578.22 377.59 577.94&#10;  Q 375.48 575.86 373.02 575.13&#10;  A 0.85 0.85 0.0 0 0 371.93 575.94&#10;  C 371.89 580.43 371.83 586.03 372.61 590.30&#10;  C 373.36 594.37 373.29 598.18 374.46 602.56&#10;  Q 377.46 613.78 384.12 624.92&#10;  Q 388.74 632.66 393.63 639.82&#10;  Q 398.35 646.72 403.93 651.51&#10;  Q 417.97 663.54 431.50 669.46&#10;  Q 441.71 673.92 458.07 677.65&#10;  Q 458.17 677.67 458.06 677.72&#10;  Q 458.05 677.73 458.03 677.74&#10;  Q 458.00 677.75 457.96 677.74&#10;  Q 457.80 677.72 457.66 677.74&#10;  Q 457.08 677.82 457.67 677.82&#10;  Z&#10;  M 420.51 473.12&#10;  Q 413.27 467.78 404.77 466.93&#10;  C 394.80 465.94 387.16 471.01 380.69 478.15&#10;  Q 375.91 483.42 374.08 489.20&#10;  Q 371.29 498.04 376.18 507.94&#10;  Q 382.35 520.41 394.82 525.79&#10;  Q 401.04 528.47 408.53 525.74&#10;  C 415.71 523.12 421.07 520.44 425.37 515.12&#10;  Q 431.31 507.78 433.04 498.64&#10;  Q 433.43 496.60 432.47 492.97&#10;  C 430.27 484.69 427.03 477.92 420.51 473.12&#10;  Z"/>
<path fill="#1391ff" d="&#10;  M 420.51 473.12&#10;  C 427.03 477.92 430.27 484.69 432.47 492.97&#10;  Q 433.43 496.60 433.04 498.64&#10;  Q 431.31 507.78 425.37 515.12&#10;  C 421.07 520.44 415.71 523.12 408.53 525.74&#10;  Q 401.04 528.47 394.82 525.79&#10;  Q 382.35 520.41 376.18 507.94&#10;  Q 371.29 498.04 374.08 489.20&#10;  Q 375.91 483.42 380.69 478.15&#10;  C 387.16 471.01 394.80 465.94 404.77 466.93&#10;  Q 413.27 467.78 420.51 473.12&#10;  Z"/>
</svg>